<svg width="81" height="45" viewBox="0 0 81 45" fill="none" xmlns="http://www.w3.org/2000/svg">
<rect width="81" height="45" rx="15" fill="#101223"/>
<path d="M28.344 18.64V21.44H32.104V23.216H28.344V26.176H32.584V28H26.104V16.816H32.584V18.64H28.344ZM34.0436 23.536C34.0436 22.64 34.2196 21.8453 34.5716 21.152C34.9343 20.4587 35.425 19.9253 36.0436 19.552C36.6623 19.1787 37.3503 18.992 38.1076 18.992C38.6836 18.992 39.233 19.12 39.7556 19.376C40.2783 19.6213 40.6943 19.952 41.0036 20.368V16.16H43.2756V28H41.0036V26.688C40.7263 27.1253 40.337 27.4773 39.8356 27.744C39.3343 28.0107 38.753 28.144 38.0916 28.144C37.345 28.144 36.6623 27.952 36.0436 27.568C35.425 27.184 34.9343 26.6453 34.5716 25.952C34.2196 25.248 34.0436 24.4427 34.0436 23.536ZM41.0196 23.568C41.0196 23.024 40.913 22.56 40.6996 22.176C40.4863 21.7813 40.1983 21.4827 39.8356 21.28C39.473 21.0667 39.0836 20.96 38.6676 20.96C38.2516 20.96 37.8676 21.0613 37.5156 21.264C37.1636 21.4667 36.8756 21.7653 36.6516 22.16C36.4383 22.544 36.3316 23.0027 36.3316 23.536C36.3316 24.0693 36.4383 24.5387 36.6516 24.944C36.8756 25.3387 37.1636 25.6427 37.5156 25.856C37.8783 26.0693 38.2623 26.176 38.6676 26.176C39.0836 26.176 39.473 26.0747 39.8356 25.872C40.1983 25.6587 40.4863 25.36 40.6996 24.976C40.913 24.5813 41.0196 24.112 41.0196 23.568ZM46.5994 18.08C46.2047 18.08 45.874 17.9573 45.6074 17.712C45.3514 17.456 45.2234 17.1413 45.2234 16.768C45.2234 16.3947 45.3514 16.0853 45.6074 15.84C45.874 15.584 46.2047 15.456 46.5994 15.456C46.994 15.456 47.3194 15.584 47.5754 15.84C47.842 16.0853 47.9754 16.3947 47.9754 16.768C47.9754 17.1413 47.842 17.456 47.5754 17.712C47.3194 17.9573 46.994 18.08 46.5994 18.08ZM47.7034 19.136V28H45.4634V19.136H47.7034ZM52.5245 20.976V25.264C52.5245 25.5627 52.5938 25.7813 52.7325 25.92C52.8818 26.048 53.1272 26.112 53.4685 26.112H54.5085V28H53.1005C51.2125 28 50.2685 27.0827 50.2685 25.248V20.976H49.2125V19.136H50.2685V16.944H52.5245V19.136H54.5085V20.976H52.5245Z" fill="white"/>
</svg>
