<svg width="81" height="45" viewBox="0 0 81 45" fill="none" xmlns="http://www.w3.org/2000/svg">
<rect width="81" height="45" rx="15" fill="#00BFB2"/>
<path d="M20.688 28H23.056L19.04 16.816H16.432L12.416 28H14.768L15.504 25.872H19.952L20.688 28ZM19.344 24.08H16.112L17.728 19.408L19.344 24.08ZM23.9811 23.568C23.9811 26.352 25.8051 28.144 28.3651 28.144C30.5731 28.144 32.0611 26.896 32.5411 25.008H30.1251C29.8531 25.808 29.2771 26.224 28.3491 26.224C27.1011 26.224 26.2691 25.296 26.2691 23.568C26.2691 21.84 27.1011 20.896 28.3491 20.896C29.2771 20.896 29.8691 21.376 30.1251 22.128H32.5411C32.0611 20.144 30.5731 18.992 28.3651 18.992C25.8051 18.992 23.9811 20.784 23.9811 23.568ZM33.6061 23.568C33.6061 26.352 35.4301 28.144 37.9901 28.144C40.1981 28.144 41.6861 26.896 42.1661 25.008H39.7501C39.4781 25.808 38.9021 26.224 37.9741 26.224C36.7261 26.224 35.8941 25.296 35.8941 23.568C35.8941 21.84 36.7261 20.896 37.9741 20.896C38.9021 20.896 39.4941 21.376 39.7501 22.128H42.1661C41.6861 20.144 40.1981 18.992 37.9901 18.992C35.4301 18.992 33.6061 20.784 33.6061 23.568ZM47.6151 20.832C48.7671 20.832 49.6951 21.568 49.7271 22.736H45.5191C45.6951 21.52 46.5431 20.832 47.6151 20.832ZM51.8231 25.216H49.4071C49.1191 25.808 48.5911 26.288 47.6311 26.288C46.5111 26.288 45.6151 25.552 45.5031 24.24H51.9831C52.0311 23.952 52.0471 23.664 52.0471 23.376C52.0471 20.736 50.2391 18.992 47.6791 18.992C45.0551 18.992 43.2311 20.768 43.2311 23.568C43.2311 26.352 45.1031 28.144 47.6791 28.144C49.8711 28.144 51.3431 26.848 51.8231 25.216ZM55.9221 20.416V19.136H53.6821V32.224H55.9221V26.736C56.4661 27.456 57.4581 28.144 58.8501 28.144C61.1221 28.144 62.8981 26.304 62.8981 23.536C62.8981 20.768 61.1221 18.992 58.8501 18.992C57.4741 18.992 56.4501 19.664 55.9221 20.416ZM60.6101 23.536C60.6101 25.216 59.4741 26.176 58.2581 26.176C57.0581 26.176 55.9221 25.248 55.9221 23.568C55.9221 21.888 57.0581 20.96 58.2581 20.96C59.4741 20.96 60.6101 21.856 60.6101 23.536ZM64.8779 25.248C64.8779 27.28 66.0139 28 67.7099 28H69.1179V26.112H68.0779C67.3739 26.112 67.1339 25.856 67.1339 25.264V20.976H69.1179V19.136H67.1339V16.944H64.8779V19.136H63.8219V20.976H64.8779V25.248Z" fill="white"/>
</svg>
