<svg width="81" height="45" viewBox="0 0 81 45" fill="none" xmlns="http://www.w3.org/2000/svg">
<rect width="81" height="45" rx="15" fill="#00BFB2"/>
<path d="M30.416 16.816V24.496L25.344 16.816H23.104V28H25.344V20.336L30.416 28H32.656V16.816H30.416ZM38.6776 20.832C39.8296 20.832 40.7576 21.568 40.7896 22.736H36.5816C36.7576 21.52 37.6056 20.832 38.6776 20.832ZM42.8856 25.216H40.4696C40.1816 25.808 39.6536 26.288 38.6936 26.288C37.5736 26.288 36.6776 25.552 36.5656 24.24H43.0456C43.0936 23.952 43.1096 23.664 43.1096 23.376C43.1096 20.736 41.3016 18.992 38.7416 18.992C36.1176 18.992 34.2936 20.768 34.2936 23.568C34.2936 26.352 36.1656 28.144 38.7416 28.144C40.9336 28.144 42.4056 26.848 42.8856 25.216ZM49.6406 28H52.1686L49.2246 23.552L52.1366 19.136H49.7366L48.1046 21.872L46.2966 19.136H43.7686L46.6966 23.552L43.8006 28H46.2006L47.8166 25.248L49.6406 28ZM53.7373 25.248C53.7373 27.28 54.8733 28 56.5693 28H57.9773V26.112H56.9373C56.2333 26.112 55.9933 25.856 55.9933 25.264V20.976H57.9773V19.136H55.9933V16.944H53.7373V19.136H52.6813V20.976H53.7373V25.248Z" fill="white"/>
</svg>
