<svg width="81" height="45" viewBox="0 0 81 45" fill="none" xmlns="http://www.w3.org/2000/svg">
<rect width="81" height="45" rx="15" fill="#FFB81C"/>
<path d="M21.56 22.4C21.56 25.744 24.008 28.096 27.224 28.096C29.704 28.096 31.72 26.784 32.472 24.48H29.896C29.368 25.568 28.408 26.096 27.208 26.096C25.256 26.096 23.864 24.656 23.864 22.4C23.864 20.128 25.256 18.704 27.208 18.704C28.408 18.704 29.368 19.232 29.896 20.304H32.472C31.72 18.016 29.704 16.688 27.224 16.688C24.008 16.688 21.56 19.056 21.56 22.4ZM34.3853 28H36.6253V23.104C36.6253 21.68 37.4093 20.912 38.6253 20.912C39.8093 20.912 40.5933 21.68 40.5933 23.104V28H42.8333V22.8C42.8333 20.352 41.3773 19.008 39.3773 19.008C38.1933 19.008 37.2013 19.488 36.6253 20.24V16.16H34.3853V28ZM44.3874 23.536C44.3874 26.304 46.1794 28.144 48.4194 28.144C49.8274 28.144 50.8354 27.472 51.3634 26.704V28H53.6194V19.136H51.3634V20.4C50.8354 19.664 49.8594 18.992 48.4354 18.992C46.1794 18.992 44.3874 20.768 44.3874 23.536ZM51.3634 23.568C51.3634 25.248 50.2434 26.176 49.0114 26.176C47.8114 26.176 46.6754 25.216 46.6754 23.536C46.6754 21.856 47.8114 20.96 49.0114 20.96C50.2434 20.96 51.3634 21.888 51.3634 23.568ZM56.1591 25.248C56.1591 27.28 57.2951 28 58.9911 28H60.3991V26.112H59.3591C58.6551 26.112 58.4151 25.856 58.4151 25.264V20.976H60.3991V19.136H58.4151V16.944H56.1591V19.136H55.1031V20.976H56.1591V25.248Z" fill="#404252"/>
</svg>
