<svg width="45" height="45" viewBox="0 0 45 45" fill="none" xmlns="http://www.w3.org/2000/svg">
<rect width="45" height="45" rx="15" fill="#F4F4F4"/>
<path d="M18.6844 20.6578L25.3125 17.3438M25.3156 26.6578L18.6938 23.3469M31 16C31 17.6569 29.6569 19 28 19C26.3431 19 25 17.6569 25 16C25 14.3431 26.3431 13 28 13C29.6569 13 31 14.3431 31 16ZM19 22C19 23.6569 17.6569 25 16 25C14.3431 25 13 23.6569 13 22C13 20.3431 14.3431 19 16 19C17.6569 19 19 20.3431 19 22ZM31 28C31 29.6569 29.6569 31 28 31C26.3431 31 25 29.6569 25 28C25 26.3431 26.3431 25 28 25C29.6569 25 31 26.3431 31 28Z" stroke="#404252" stroke-width="1.5"/>
</svg>
