<svg width="19" height="19" viewBox="0 0 19 19" fill="none" xmlns="http://www.w3.org/2000/svg">
<path d="M6.3686 8.23235L12.6284 5.10243M12.6314 13.8991L6.37748 10.7721M18 3.83333C18 5.39814 16.7315 6.66667 15.1667 6.66667C13.6019 6.66667 12.3333 5.39814 12.3333 3.83333C12.3333 2.26853 13.6019 1 15.1667 1C16.7315 1 18 2.26853 18 3.83333ZM6.66667 9.5C6.66667 11.0648 5.39814 12.3333 3.83333 12.3333C2.26853 12.3333 1 11.0648 1 9.5C1 7.93519 2.26853 6.66667 3.83333 6.66667C5.39814 6.66667 6.66667 7.93519 6.66667 9.5ZM18 15.1667C18 16.7315 16.7315 18 15.1667 18C13.6019 18 12.3333 16.7315 12.3333 15.1667C12.3333 13.6019 13.6019 12.3333 15.1667 12.3333C16.7315 12.3333 18 13.6019 18 15.1667Z" stroke="#404252" stroke-width="1.5"/>
</svg>
